Coordinates
version=1
nRows=11
nColumns=26
inDegrees=yes

Units are S.I. units (second, meters, Newtons, ...)
Angles are in degrees.

endheader
time	pelvis_tilt	pelvis_list	pelvis_rotation	pelvis_tx	pelvis_ty	pelvis_tz	hip_flexion_r	hip_adduction_r	hip_rotation_r	knee_angle_r	knee_angle_r_beta	ankle_angle_r	subtalar_angle_r	mtp_angle_r	hip_flexion_l	hip_adduction_l	hip_rotation_l	knee_angle_l	knee_angle_l_beta	ankle_angle_l	subtalar_angle_l	mtp_angle_l	lumbar_extension	lumbar_bending	lumbar_rotation
      0.00000000	      4.26977055	     -4.46725784	     -4.04437396	      0.04654149	      0.98053893	      0.19352101	    -18.70512493	      5.37624554	      2.03985898	      7.79503249	      7.79503249	     13.51008012	      0.00000000	      0.00000000	     23.86227983	     -7.79964926	    -13.47142383	     14.94643698	     14.94643698	     -0.12533822	      0.00000000	      0.00000000	    -19.50720380	      3.36004375	      7.80960292
      0.00833333	      4.49806882	     -4.26275151	     -4.51442542	      0.05683657	      0.98004268	      0.19339710	    -19.39495753	      4.88081799	      2.22387689	      8.15630435	      8.15630435	     13.54660629	      0.00000000	      0.00000000	     23.13023763	     -7.61098377	    -13.89183451	     15.21339839	     15.21339839	     -0.56786751	      0.00000000	      0.00000000	    -19.65538983	      2.87231000	      8.07835258
      0.01666667	      4.58766954	     -4.13977589	     -4.93552574	      0.06717838	      0.97938019	      0.19314138	    -19.81602914	      4.49427235	      2.27945070	      8.72438443	      8.72438443	     13.54977051	      0.00000000	      0.00000000	     22.71671669	     -7.51895866	    -13.99731521	     15.70477794	     15.70477794	     -1.12920098	      0.00000000	      0.00000000	    -19.63078365	      2.52225267	      8.29734037
      0.02500000	      4.64283172	     -4.03555643	     -5.28680524	      0.07749761	      0.97892944	      0.19265071	    -20.11414530	      4.13561312	      2.35310777	      9.47566576	      9.47566576	     13.60330166	      0.00000000	      0.00000000	     22.32650782	     -7.40725067	    -13.88798590	     16.14812277	     16.14812277	     -2.09198083	      0.00000000	      0.00000000	    -19.56866708	      2.23366421	      8.39508108
      0.03333333	      4.68919963	     -3.93664026	     -5.58065830	      0.08792826	      0.97861069	      0.19201301	    -20.30691127	      3.78162064	      2.31706413	     10.38072211	     10.38072211	     13.54243942	      0.00000000	      0.00000000	     21.86530054	     -7.26604263	    -13.79395974	     16.37494117	     16.37494117	     -3.19238542	      0.00000000	      0.00000000	    -19.46866744	      1.97046266	      8.46564534
      0.04166667	      4.67817342	     -3.89250550	     -5.81255446	      0.09835382	      0.97836406	      0.19129689	    -20.34502077	      3.49688928	      2.21625196	     11.41392856	     11.41392856	     13.29681415	      0.00000000	      0.00000000	     21.51723457	     -7.21117693	    -13.82292926	     16.67335455	     16.67335455	     -4.20768736	      0.00000000	      0.00000000	    -19.31630298	      1.79927603	      8.44268437
      0.05000000	      4.63662879	     -3.87391680	     -5.98589895	      0.10876571	      0.97826535	      0.19049928	    -20.20579351	      3.25302266	      2.12133195	     12.70163766	     12.70163766	     13.04624336	      0.00000000	      0.00000000	     21.28612726	     -7.22969772	    -13.84540589	     17.21587678	     17.21587678	     -4.86788362	      0.00000000	      0.00000000	    -19.12375996	      1.67787126	      8.36644257
      0.05833333	      4.69702646	     -3.78256127	     -6.07864590	      0.11920724	      0.97863114	      0.18973120	    -20.03559011	      2.93956745	      1.88213631	     14.23400559	     14.23400559	     12.72347896	      0.00000000	      0.00000000	     20.78020238	     -7.12334968	    -13.96634602	     17.53466213	     17.53466213	     -5.08703725	      0.00000000	      0.00000000	    -19.04332346	      1.45727284	      8.20314778
      0.06666667	      4.67078724	     -3.68511737	     -6.13015334	      0.12946051	      0.97919422	      0.18896226	    -19.55876734	      2.63661280	      1.60585352	     16.09657407	     16.09657407	     12.31504540	      0.00000000	      0.00000000	     20.56489515	     -7.04269613	    -13.96918492	     18.30930828	     18.30930828	     -4.56012628	      0.00000000	      0.00000000	    -18.89660713	      1.24632882	      7.98612566
      0.07500000	      4.64417092	     -3.39511847	     -6.10786219	      0.13953485	      0.98013691	      0.18798842	    -18.86351977	      2.13356919	      1.21154901	     18.29681576	     18.29681576	     11.86630669	      0.00000000	      0.00000000	     20.48626883	     -6.72495791	    -13.79539678	     19.37762348	     19.37762348	     -3.62416346	      0.00000000	      0.00000000	    -18.77404092	      0.84189395	      7.66608288
      0.08333333	      4.68308339	     -3.09898167	     -5.99673053	      0.14962747	      0.98148019	      0.18694731	    -18.10293338	      1.63198738	      0.81759967	     20.68706919	     20.68706919	     11.27306953	      0.00000000	      0.00000000	     20.31524017	     -6.33705693	    -13.49999680	     20.37892831	     20.37892831	     -2.70834206	      0.00000000	      0.00000000	    -18.73717414	      0.44263326	      7.28514961
